<?xml version="1.0" encoding="UTF-8" standalone="no"?>
<svg
   version="1.1"
   id="Layer_1"
   x="0px"
   y="0px"
   width="184.11786"
   viewBox="0 0 184.11786 80.080391"
   xml:space="preserve"
   height="80.080391"
   xmlns="http://www.w3.org/2000/svg">
  <rect width="184.11786" height="80.080391" fill="#282828" />
  <g transform="translate(-9.0028731,-7.80249)">
    <g transform="translate(-9.2452519,-15.422039)">
      <path fill="#fa0101" d="m 160.37122,90.302078 c 2.59704,-15.699409 5.04325,-30.985401 7.74182,-46.226711 0.25753,-1.454479 2.2754,-3.850681 3.16008,-3.717094 3.29207,0.497108 7.82595,-2.838364 9.65106,2.342189 3.46542,-0.975444 6.86001,-2.483993 10.36037,-2.79248 5.92149,-0.521851 9.8684,2.385021 10.608,8.193207 1.34842,10.589409 -0.15215,21.094322 -4.90569,30.591537 -4.62813,9.246658 -15.41873,9.938446 -22.767,1.903145 -1.02212,5.92041 -2.36107,11.564712 -2.86432,17.28257 -0.37855,4.300949 -1.97666,5.906439 -6.21455,5.304629 -2.07216,-0.29427 -4.22064,-0.051 -6.7399,-0.051 0.69614,-4.571029 1.29262,-8.487632 1.97013,-12.830032 m 20.16304,-14.127167 c 4.40574,-0.07931 6.63942,-2.719841 7.45759,-6.676628 0.83971,-4.060798 1.51045,-8.166683 2.02274,-12.281768 0.40313,-3.238575 0.406,-6.531063 -3.83463,-7.440499 -3.80304,-0.815593 -6.90764,1.3494 -7.83835,5.785298 -0.91934,4.381729 -1.65455,8.821163 -2.12217,13.271885 -0.31108,2.961006 -0.37288,6.163894 4.31482,7.341712 z" />
      <path fill="#f90101" d="m 107.43147,39.954662 c 2.52739,1.52203 4.64286,2.978772 7.19949,4.739312 1.19481,-6.967171 2.40895,-14.047104 3.68182,-21.469445 3.83081,0 7.54943,0 12.06477,0 -3.439,20.955208 -6.83697,41.660496 -10.35242,63.0816 -4.36754,-1.875495 -9.70088,2.462952 -12.82641,-3.74485 0.22751,-0.05302 -0.16026,-0.07326 -0.3905,0.107331 -4.69658,3.684013 -9.992821,5.151237 -15.313362,2.174743 -5.391388,-3.016121 -5.693283,-8.746917 -5.164993,-14.132881 0.56649,-5.775421 1.563362,-11.539394 2.81845,-17.20964 2.130631,-9.625805 7.936028,-13.885605 18.283155,-13.54617 m -1.47705,36.061467 c 0.95316,-0.636834 2.60372,-1.143631 2.75051,-1.930832 1.3184,-7.070397 2.81025,-14.160321 3.29628,-21.309422 0.20427,-3.004803 -3.54284,-3.830177 -5.77499,-2.558128 -2.2015,1.254589 -4.43789,3.618877 -5.20134,5.969684 -1.371567,4.223328 -1.821175,8.781067 -2.344452,13.235665 -0.599793,5.10588 1.018493,6.651443 7.273992,6.593033 z" />
      <path fill="#fa0101" d="m 140.94911,50.863461 c 0.96073,-6.013024 1.86231,-11.59359 2.83989,-17.644597 -2.43988,-0.219329 -4.67338,-0.420105 -7.25229,-0.651928 0,-3.02013 0,-5.930475 0,-9.282545 6.83074,0 13.69834,0 21.08931,0 -2.84852,17.316477 -5.67335,34.489043 -8.58021,52.160204 2.50023,0.229836 4.7267,0.43451 7.31404,0.672348 0,3.014054 0,5.929123 0,9.30803 -9.62865,0 -19.34389,0 -29.41155,0 0,-2.982407 0,-6.062348 0,-9.647545 3.30582,0 6.40863,0 9.80333,0 1.42815,-8.448593 2.78324,-16.46505 4.19748,-24.913967 z" />
      <path fill="#f7f7f7" d="M 24.907135,50.033821 C 22.61129,48.705879 20.63868,47.53754 18.297344,46.150818 c 1.700083,-2.720711 3.243361,-5.190479 4.952461,-7.925621 8.80653,5.435528 17.315899,10.566841 25.685872,15.916263 3.121704,1.99514 2.665279,8.433407 -0.63255,10.511937 -8.149231,5.136222 -16.364847,10.167129 -24.918554,15.466346 -1.69318,-2.49353 -3.323439,-4.894401 -5.136448,-7.564407 7.523373,-4.442925 14.654463,-8.654182 22.558951,-13.322174 -5.484692,-3.182968 -10.530697,-6.111351 -15.899941,-9.199341 z" />
      <path fill="#f6f6f6" d="m 59.009968,85.17836 c 7.154011,0 13.810444,0 20.828899,0 0,2.879654 0,5.603195 0,8.821785 -5.749252,0 -11.521011,8e-6 -17.292766,8e-6 -5.635369,0 -11.270737,-8e-6 -17.205811,-8e-6 0,-2.91639 0,-5.504868 0,-8.821785 4.308456,0 8.740284,0 13.669678,0 z" />
    </g>
  </g>
</svg>
